<svg xmlns="http://www.w3.org/2000/svg" xmlns:xlink="http://www.w3.org/1999/xlink" width="151" zoomAndPan="magnify" viewBox="0 0 113.25 113.249996" height="151" preserveAspectRatio="xMidYMid meet" version="1.0"><defs><clipPath id="727e045707"><path d="M 0 0 L 112.503906 0 L 112.503906 112.503906 L 0 112.503906 Z M 0 0 " clip-rule="nonzero"/></clipPath></defs><path fill="#efeadd" d="M 56.375 43.878906 C 49.492188 43.878906 43.878906 49.492188 43.878906 56.375 C 43.878906 63.257812 49.492188 68.871094 56.375 68.871094 C 63.257812 68.871094 68.871094 63.257812 68.871094 56.375 C 68.871094 49.492188 63.257812 43.878906 56.375 43.878906 Z M 56.375 43.878906 " fill-opacity="1" fill-rule="nonzero"/><path fill="#efeadd" d="M 73.164062 25.722656 L 39.585938 25.722656 C 31.96875 25.722656 25.722656 31.921875 25.722656 39.585938 L 25.722656 73.164062 C 25.722656 80.78125 31.921875 87.027344 39.585938 87.027344 L 73.164062 87.027344 C 80.78125 87.027344 87.027344 80.828125 87.027344 73.164062 L 87.027344 39.585938 C 86.980469 31.921875 80.78125 25.722656 73.164062 25.722656 Z M 56.375 75.167969 C 45.980469 75.167969 37.535156 66.722656 37.535156 56.328125 C 37.535156 45.929688 45.980469 37.484375 56.375 37.484375 C 66.769531 37.484375 75.214844 45.929688 75.214844 56.328125 C 75.167969 66.722656 66.722656 75.167969 56.375 75.167969 Z M 76.535156 40.660156 C 74.042969 40.660156 71.992188 38.609375 71.992188 36.117188 C 71.992188 33.628906 74.042969 31.578125 76.535156 31.578125 C 79.023438 31.578125 81.074219 33.628906 81.074219 36.117188 C 81.074219 38.65625 79.070312 40.660156 76.535156 40.660156 Z M 76.535156 40.660156 " fill-opacity="1" fill-rule="nonzero"/><g clip-path="url(#727e045707)"><path fill="#efeadd" d="M 56.375 0 C 25.234375 0 0 25.234375 0 56.375 C 0 87.515625 25.234375 112.75 56.375 112.75 C 87.515625 112.75 112.75 87.515625 112.75 56.375 C 112.703125 25.234375 87.464844 0 56.375 0 Z M 93.324219 73.164062 C 93.324219 84.292969 84.246094 93.371094 73.117188 93.371094 L 39.585938 93.371094 C 28.457031 93.371094 19.378906 84.292969 19.378906 73.164062 L 19.378906 39.585938 C 19.378906 28.457031 28.457031 19.378906 39.585938 19.378906 L 73.164062 19.378906 C 84.292969 19.378906 93.371094 28.457031 93.371094 39.585938 L 93.371094 73.164062 Z M 93.324219 73.164062 " fill-opacity="1" fill-rule="nonzero"/></g></svg>