<svg xmlns="http://www.w3.org/2000/svg" xmlns:xlink="http://www.w3.org/1999/xlink" width="151" zoomAndPan="magnify" viewBox="0 0 113.25 113.249996" height="151" preserveAspectRatio="xMidYMid meet" version="1.0"><defs><clipPath id="f6b2d825e4"><path d="M 0 0 L 112.503906 0 L 112.503906 112.503906 L 0 112.503906 Z M 0 0 " clip-rule="nonzero"/></clipPath></defs><g clip-path="url(#f6b2d825e4)"><path fill="#efeadd" d="M 56.375 0 C 25.179688 0 0 25.179688 0 56.375 C 0 87.570312 25.179688 112.75 56.375 112.75 C 87.570312 112.75 112.75 87.570312 112.75 56.375 C 112.75 25.179688 87.570312 0 56.375 0 Z M 56.375 11.273438 C 81.554688 11.273438 101.476562 31.195312 101.476562 56.375 C 101.476562 79.25 85.023438 97.730469 63.136719 100.933594 L 63.136719 69.90625 L 76.105469 69.90625 L 78.363281 56.375 L 63.136719 56.375 L 63.136719 49.042969 C 63.136719 43.40625 64.832031 38.339844 69.90625 38.339844 L 78.363281 38.339844 L 78.363281 27.0625 C 76.671875 27.0625 73.847656 26.492188 68.210938 26.492188 C 55.808594 26.492188 49.042969 32.699219 49.042969 47.355469 L 49.042969 56.375 L 36.082031 56.375 L 36.082031 69.90625 L 48.480469 69.90625 L 48.480469 100.757812 C 27.160156 97.09375 11.273438 78.851562 11.273438 56.375 C 11.273438 31.195312 31.195312 11.273438 56.375 11.273438 Z M 56.375 11.273438 " fill-opacity="1" fill-rule="nonzero"/></g></svg>